<svg width="16" height="16" viewBox="0 0 16 16" fill="none" xmlns="http://www.w3.org/2000/svg">
<path d="M3 10C2.05494 10.6805 2 11.406 2 12C2 12.6291 1.60735 13.2551 1.31412 13.6349C1.20528 13.7758 1.30406 14 1.48214 14H4C5.10457 14 6.2 13.1046 6.2 12C6.2 10.7855 5.52244 10.267 4.97344 10.0842C4.80439 10.0279 4.71543 9.78457 4.84142 9.65858L12.25 2.25C12.6642 1.83579 13.3358 1.83579 13.75 2.25V2.25C14.1642 2.66421 14.1642 3.33579 13.75 3.75L7.5 10" stroke="black" stroke-width="1.2" stroke-linecap="round" stroke-linejoin="round"/>
<path d="M8 14L14 14" stroke="black" stroke-width="1.2" stroke-linecap="round"/>
</svg>
