<svg width="32" height="32" viewBox="0 0 32 32" fill="none" xmlns="http://www.w3.org/2000/svg">
<path d="M26 15.125C26 18.991 21.5228 23 16 23C10.4772 23 6 18.991 6 15.125C6 11.259 10.4772 9 16 9C21.5228 9 26 11.625 26 15.125Z" stroke="black" stroke-width="1.8" stroke-linecap="round" stroke-linejoin="round"/>
<path d="M24 21C23.5 26 20.5 25 19.5 26.5C18.9167 27.7217 18.75 28.5 18.75 28.5M13.6667 28.5C13.6667 28.5 14 27 13 26C11.915 24.915 8 25.5 8 20.5" stroke="black" stroke-width="1.8" stroke-linecap="round" stroke-linejoin="round"/>
<path d="M4 6C4 6 4 11.5 6 14" stroke="black" stroke-width="1.8" stroke-linecap="round" stroke-linejoin="round"/>
<path d="M7 5C7 5 8.50027 8 11.5 9.5" stroke="black" stroke-width="1.8" stroke-linecap="round" stroke-linejoin="round"/>
<path d="M28 7C28 7 28.4998 12.5 26 15.5" stroke="black" stroke-width="1.8" stroke-linecap="round" stroke-linejoin="round"/>
<path d="M25 5.5C25 5.5 24.9997 8 22 9.5" stroke="black" stroke-width="1.8" stroke-linecap="round" stroke-linejoin="round"/>
<path d="M19 19.6299C19 19.6299 21 19 22 17" stroke="black" stroke-width="1.8" stroke-linecap="round" stroke-linejoin="round"/>
</svg>
