<svg width="32" height="32" viewBox="0 0 32 32" fill="none" xmlns="http://www.w3.org/2000/svg">
<path d="M21.4998 3C20.4998 6.5 22.9998 7 24.8145 5.38271M28.4999 6.30755C26.889 8.02806 26.006 10.5368 26.006 12.3004C26.006 14.1372 26.9999 15.5 28.4999 16.5M17.4998 9.5C16.9998 8 16.5519 7.22358 15.3833 5.79373C14.1967 4.34196 12.7317 3.08134 11.4998 2.5" stroke="black" stroke-width="1.8" stroke-linecap="round" stroke-linejoin="round"/>
<path d="M20.5 16.5C20.5 16.5 21.6 19.5 28 22" stroke="black" stroke-width="1.8" stroke-linecap="round" stroke-linejoin="round"/>
<path d="M17.2458 18.4881C18 17.9997 19.9971 16.488 19.9971 16.488C22.1075 14.7694 22.6972 13.287 21.9971 11.4882C21.2186 9.48823 18.8078 9.35138 17 9.99962C15.5466 10.5208 14.5819 11.8536 13.1349 12.4277C10.4114 13.5083 8.52846 14.6432 6.47099 17.2826C3.54312 21.0385 3.15915 25.5123 5.61319 27.2748C8.06726 29.0372 12.7735 28.4042 15.5 24.4997C17.2458 21.9997 17.2458 20.0975 17.2458 18.4881ZM17.2458 18.4881C17.2458 18.4881 17.2458 16.988 17 15.4997" stroke="black" stroke-width="1.8" stroke-linecap="round" stroke-linejoin="round"/>
<path d="M6.95117 22.5596C6.95117 22.5596 7.06555 20.4658 8.75519 19.0012" stroke="black" stroke-width="1.8" stroke-linecap="round" stroke-linejoin="round"/>
</svg>
