<svg width="32" height="32" viewBox="0 0 32 32" fill="none" xmlns="http://www.w3.org/2000/svg">
<path d="M22.4554 4.8979C19.2032 4.79078 16.716 6.19666 15.1306 9.03829C13.6317 11.7248 15.1427 14.8348 15.1427 14.8348M15.1427 14.8348C15.1427 14.8348 14.819 17.6471 12.319 19M15.1427 14.8348C15.1427 14.8348 15.8971 16.3718 17.2133 18.1471M17.2133 18.1471C18.1628 19.4278 20.5256 21.8735 23.0098 23.1156M17.2133 18.1471C17.2133 18.1471 19.6975 17.319 22.5958 18.5611M14.7291 8.62531C9.76016 8.62576 8.35049 13.7002 8.35049 16.317C8.35049 18.9338 9.59242 21.8349 11.2487 23.6985C14.561 27.4248 22.0593 29.0774 25.494 27.2568C28.9286 25.4362 26.6118 21.4703 25.7325 16.3174C25.0014 13.1263 22.6291 11.3642 20.1115 10.9003L18.8693 10.6953M20.5256 10.6947C20.5257 10.2806 20.94 8.62447 23.4214 8.62447M16.5 6.5C16.5 6.5 13.073 6.31231 13.073 3M8.75051 11.1051C8.75051 11.1051 5.45207 8.38223 8.75063 3.41377M7.11063 6.96835C7.11063 6.96835 4.8114 7.41356 4.20996 9.86662C3.47941 12.8463 4.8769 14.007 5.04028 15.2491C5.31439 17.3332 4.21177 20.2176 5.86807 23.1159C7.52438 26.0141 12.319 24.9104 12.319 24.9104" stroke="black" stroke-width="1.8" stroke-linecap="round" stroke-linejoin="round"/>
</svg>
