<svg width="32" height="32" viewBox="0 0 32 32" fill="none" xmlns="http://www.w3.org/2000/svg">
<path d="M11.28 12.4907C11.4909 12.0569 11.9226 11.194 11.4175 9.92715C10.7232 8.18608 8.78488 7.53474 6.80398 8.3457C5.5551 8.85697 4.49741 9.90304 3.90372 11.0657C2.91425 13.0034 2.46123 15.6637 4.0058 18.687C5.55036 21.7103 8.25469 22.4066 9.79662 21.7992C11.3385 21.1918 12.5026 18.8587 11.7808 17.0985C11.0589 15.3384 9.80013 15.2492 8.12171 15.1303" stroke="black" stroke-width="1.8" stroke-linecap="round" stroke-linejoin="round"/>
<path d="M21.6502 12.0197C21.1818 12.0197 20.2185 11.4708 19.7765 11.0664C18.995 10.3513 18.7592 8.81287 19.2729 7.37684C19.9787 5.4033 22.3634 4.47474 24.5992 5.30284C26.0088 5.82492 27.2261 6.95232 27.9314 8.22837C29.107 10.3551 29.5131 13.7404 28.1102 16.7512C26.7072 19.762 23.6772 21.561 21.653 20.842C19.9135 20.2241 19.4659 17.4832 20.1134 16.2163C20.7608 14.9494 21.653 14.8957 21.653 14.8957" stroke="black" stroke-width="1.8" stroke-linecap="round" stroke-linejoin="round"/>
<path d="M11.6544 28C11.6544 28 12.5016 26.2387 13.6094 23.4204C14.7173 20.6021 15.8008 16.1979 14.1633 13.5547C13.2452 12.0726 12.5 12.0003 11.5 12.0003" stroke="black" stroke-width="1.8" stroke-linecap="round" stroke-linejoin="round"/>
<path d="M18 28.5C18 28.5 17.5 16.7353 17.5 15C17.5 13.2647 18.5 12 19.5 11.5" stroke="black" stroke-width="1.8" stroke-linecap="round" stroke-linejoin="round"/>
</svg>
