<svg width="32" height="32" viewBox="0 0 32 32" fill="none" xmlns="http://www.w3.org/2000/svg">
<path d="M21.3099 19.0005C23.8779 18.1961 25.4187 15.438 25.9323 13.4024C26.4459 11.3669 28.5002 10.8584 28.5002 9.33107C28.5002 6.78712 19.5332 6.40207 17.2012 7.8047C16.5493 8.19683 15.9809 8.60031 15.5002 9.03599" stroke="black" stroke-width="1.8" stroke-linecap="round" stroke-linejoin="round"/>
<path d="M18.269 9.50329C17.2844 9.00356 16.9731 8.98952 15.3153 9.00344C13.3506 9.01995 12.1099 9.58848 9.96437 10.4676C5.0518 12.4806 3.00105 13.906 3.60212 18.7935C4.13796 23.1504 8.66729 27.3901 13.2259 26.9719C17.0143 26.6243 20.5985 21.8804 21.2228 19.5019C21.8471 17.1233 21.2228 14.5028 21.2228 14.5028" stroke="black" stroke-width="1.8" stroke-linecap="round" stroke-linejoin="round"/>
<path d="M18 24.8438C18 24.8438 20.5 25.344 22.5 24.3438C24.5 23.3437 28.5 24.4999 28.5 24.4999" stroke="black" stroke-width="1.8" stroke-linecap="round" stroke-linejoin="round"/>
<path d="M29 21.0004C24.5002 21.0003 23.5001 18.0002 23.5001 18.0002" stroke="black" stroke-width="1.8" stroke-linecap="round" stroke-linejoin="round"/>
<path d="M6.88232 16C6.88232 16 6.70684 17.7942 7.88453 19.9994" stroke="black" stroke-width="1.8" stroke-linecap="round" stroke-linejoin="round"/>
</svg>
