<svg width="32" height="32" viewBox="0 0 32 32" fill="none" xmlns="http://www.w3.org/2000/svg">
<rect x="4.06691" y="4.06633" width="23.8667" height="23.8667" stroke="black" stroke-opacity="0.1" stroke-width="0.133333"/>
<rect x="5.40016" y="2.73299" width="21.2" height="26.5333" stroke="black" stroke-opacity="0.1" stroke-width="0.133333"/>
<rect x="29.2668" y="5.39967" width="21.2" height="26.5333" transform="rotate(90 29.2668 5.39967)" stroke="black" stroke-opacity="0.1" stroke-width="0.133333"/>
<circle cx="16.0001" cy="15.9997" r="13.2667" stroke="black" stroke-opacity="0.1" stroke-width="0.133333"/>
<path d="M21.918 24.129C21.918 24.129 25.0207 24.3565 26.5631 23.3548C29.6165 21.372 27.2121 17.703 27.3373 14.0645C27.4257 11.4961 28.831 9.57509 27.3373 7.48387C26.3126 6.04931 25.4018 4 23.4663 5.16129C22.206 5.91751 20.7192 7.93467 18.807 9.177C17.7827 9.84244 16.6364 10.2856 15.3373 10.1935C12.5985 9.99952 9.93264 6.77784 8.69735 5.05988C8.31744 4.53153 7.54321 4.45209 7.10872 4.93656C6.38995 5.738 5.40765 6.91092 4.88568 7.87097C4 9.5 4.49833 22.5806 7.20826 24.5161C9.9182 26.4516 12.9038 21.4959 14.9502 23.7419C16.111 25.016 16.1115 28 16.1115 28C16.1115 28 17.5589 23.7652 16.4986 21.4194C15.8367 19.955 15.3593 18.6633 13.7889 18.3226C12.1372 17.9642 9.91794 20.2581 9.91794 20.2581M21.918 24.129C21.918 24.129 20.5564 20.6264 20.7567 18.3226C20.9852 15.6924 23.4663 12.129 23.4663 12.129M21.918 24.129C21.918 24.129 24.5 22 24.5 17.5M21.918 24.129L20.7567 25.5M9.91794 20.2581L9.53085 13.6774M9.91794 20.2581L9 21.5M9.53085 13.6774C9.53085 13.6774 8.3693 12.9032 7.5951 12.129M9.53085 13.6774C9.53085 13.6774 10.4778 14.1764 11.7586 14.6684C13.0786 15.1754 14.7533 15.675 16.1115 15.6129C19.2864 15.4678 23.4663 12.129 23.4663 12.129M23.4663 12.129L24.5 11" stroke="black" stroke-width="1.8" stroke-linecap="round" stroke-linejoin="round"/>
</svg>
