<svg width="32" height="32" viewBox="0 0 32 32" fill="none" xmlns="http://www.w3.org/2000/svg">
<path d="M20.2069 4C20.2069 4 19.7163 5.93092 20.6974 7.3791C21.6785 8.82729 25.767 10.7582 26.584 14.1373C27.6931 18.725 26.6505 25.1664 22.6596 27.171C18.6687 29.1756 12.7731 27.4122 8.92436 23.3092C6.99987 21.2573 5 17.9841 5 15.1028C5 12.9155 5.49054 10.2755 7.94327 8.34456C9.05138 7.4722 9.62664 6.682 9.90545 6.02203" stroke="black" stroke-width="1.8" stroke-linecap="round" stroke-linejoin="round"/>
<path d="M20 4C20 4 17.5003 6.5 18.5001 9.5C19.5 12.5 22.4581 13.572 23 16.5C23.5419 19.428 23.2224 22.0417 21 23.5C18.8897 24.8847 15 24 11.5034 20.6887C9.72024 19 8.5 16.5 8.5 14C8.5 11.5 10 10 10 6" stroke="black" stroke-width="1.8" stroke-linecap="round" stroke-linejoin="round"/>
<path d="M15.7324 4.38243C14.0051 6.92811 13.674 9.96328 13.674 9.96328M13.674 9.96328C13.674 9.96328 13 12.4998 11 13.4998M13.674 9.96328C13.674 9.96328 13.5 12.4998 14.5 14.9998M14.5 14.9998C15 16.4998 17.5 19.4998 20.2481 20.4554M14.5 14.9998C14.5 14.9998 17.5 14.4998 19.5 15.4998" stroke="black" stroke-width="1.8" stroke-linecap="round" stroke-linejoin="round"/>
</svg>
