<svg width="32" height="32" viewBox="0 0 32 32" fill="none" xmlns="http://www.w3.org/2000/svg">
<path d="M20.3584 6.93079C20.3584 6.93079 13.4555 7.12624 13.5563 9.8456C13.6572 12.565 22.2739 11.8522 25.7295 17.0692C27.5842 19.8694 27.0542 23.3208 24.6248 25.1506C22.6321 26.6514 19.5304 26.9506 17.9917 25.6407C14.5979 22.7517 14.2057 20.2029 12.0011 20.4914C9.40894 20.8306 9.01405 24.6618 9.50024 27.9998" stroke="black" stroke-width="1.8" stroke-linecap="round" stroke-linejoin="round"/>
<path d="M14.0442 4.82413C14.0442 4.82413 8.69751 5.47264 8.08221 8.65077C6.80834 15.2305 17.798 14.6103 21.5952 18.3006C22.796 19.4675 23.3677 21.324 21.6823 22.0957C18.1899 23.6947 17.1479 15.423 9.99976 17.5004C6.62251 18.4819 5.8688 22.2639 5.75612 24.8006" stroke="black" stroke-width="1.8" stroke-linecap="round" stroke-linejoin="round"/>
</svg>
