<svg width="32" height="32" viewBox="0 0 32 32" fill="none" xmlns="http://www.w3.org/2000/svg">
<path d="M7.69678 24.4124C7.69678 23.4557 7.55216 22.8344 8.17509 22.0208C8.79803 21.2072 10.5495 21.2095 10.9464 22.4004C11.3434 23.5912 11.1807 24.6491 12.48 25.8473C15.5907 28.7161 21.2439 27.4783 25.3946 22.9775C29.5453 18.4767 29.3956 11.407 26.2849 8.53823C24.6131 6.99649 22.21 6.30032 19.9133 7.3418C19.1765 7.67183 15.8285 7.19277 14.7532 3.36621M16.607 11.29C16.607 11.29 15.4361 13.4716 14.7532 14.5002C13.9038 15.7796 12.1131 16.5871 11.1806 16.8432M18 12.0002C18 12.0002 14.4248 10.6057 13.6309 7.96195M16 20.2002C15.1881 18.3359 12.9975 17.0002 10.4226 17.0002C7.1564 17.0002 4.50864 19.4002 4.08621 22.2002C3.90042 23.4317 4.04148 24.3536 4.25783 25.0002" stroke="black" stroke-width="1.8" stroke-linecap="round" stroke-linejoin="round"/>
</svg>
