<svg width="32" height="32" viewBox="0 0 32 32" fill="none" xmlns="http://www.w3.org/2000/svg">
<path d="M16.2158 15.9634C15.1474 15.9634 14.134 15.7647 13.225 15.4089C10.7964 14.4582 9.11257 12.3855 9.11257 9.98169C9.11257 6.67809 12.2928 4 16.2158 4C18.6891 4 21.2 5 23 6.5C26 9 28.5773 13.037 28 19C27.4227 24.963 23.5162 28.4632 20.2538 27.9435C16.9913 27.4239 14.8032 25.3747 15.5 21C15.5 21 12.5 19 8 20" stroke="black" stroke-width="1.8" stroke-linecap="round" stroke-linejoin="round"/>
<path d="M10.5 14C10.5 14 7.5 17.5 3 18" stroke="black" stroke-width="1.8" stroke-linecap="round" stroke-linejoin="round"/>
<path d="M22 13C22 13 23.5 14.5 23.5 17" stroke="black" stroke-width="1.8" stroke-linecap="round" stroke-linejoin="round"/>
</svg>
